solid OpenSCAD_Model
  facet normal 0.999506 0 -0.0314223
    outer loop
      vertex 5 30 0
      vertex 4.99013 40 -0.313953
      vertex 5 40 0
    endloop
  endfacet
  facet normal 0.999506 0 -0.0314223
    outer loop
      vertex 4.99013 40 -0.313953
      vertex 5 30 0
      vertex 4.99013 30 -0.313953
    endloop
  endfacet
  facet normal 0.995562 0 -0.0941081
    outer loop
      vertex 4.99013 30 -0.313953
      vertex 4.96057 40 -0.626666
      vertex 4.99013 40 -0.313953
    endloop
  endfacet
  facet normal 0.995562 0 -0.0941081
    outer loop
      vertex 4.96057 40 -0.626666
      vertex 4.99013 30 -0.313953
      vertex 4.96057 30 -0.626666
    endloop
  endfacet
  facet normal 0.987692 0 -0.156412
    outer loop
      vertex 4.96057 30 -0.626666
      vertex 4.91144 40 -0.936907
      vertex 4.96057 40 -0.626666
    endloop
  endfacet
  facet normal 0.987692 0 -0.156412
    outer loop
      vertex 4.91144 40 -0.936907
      vertex 4.96057 30 -0.626666
      vertex 4.91144 30 -0.936907
    endloop
  endfacet
  facet normal 0.975917 0 -0.218142
    outer loop
      vertex 4.91144 30 -0.936907
      vertex 4.84292 40 -1.24345
      vertex 4.91144 40 -0.936907
    endloop
  endfacet
  facet normal 0.975917 0 -0.218142
    outer loop
      vertex 4.84292 40 -1.24345
      vertex 4.91144 30 -0.936907
      vertex 4.84292 30 -1.24345
    endloop
  endfacet
  facet normal 0.960287 0 -0.279016
    outer loop
      vertex 4.84292 30 -1.24345
      vertex 4.75528 40 -1.54508
      vertex 4.84292 40 -1.24345
    endloop
  endfacet
  facet normal 0.960287 0 -0.279016
    outer loop
      vertex 4.75528 40 -1.54508
      vertex 4.84292 30 -1.24345
      vertex 4.75528 30 -1.54508
    endloop
  endfacet
  facet normal 0.940882 0 -0.338735
    outer loop
      vertex 4.75528 30 -1.54508
      vertex 4.64888 40 -1.84062
      vertex 4.75528 40 -1.54508
    endloop
  endfacet
  facet normal 0.940882 0 -0.338735
    outer loop
      vertex 4.64888 40 -1.84062
      vertex 4.75528 30 -1.54508
      vertex 4.64888 30 -1.84062
    endloop
  endfacet
  facet normal 0.917766 0 -0.397121
    outer loop
      vertex 4.64888 30 -1.84062
      vertex 4.52414 40 -2.1289
      vertex 4.64888 40 -1.84062
    endloop
  endfacet
  facet normal 0.917766 0 -0.397121
    outer loop
      vertex 4.52414 40 -2.1289
      vertex 4.64888 30 -1.84062
      vertex 4.52414 30 -2.1289
    endloop
  endfacet
  facet normal 0.890995 0 -0.454014
    outer loop
      vertex 4.52414 30 -2.1289
      vertex 4.38153 40 -2.40877
      vertex 4.52414 40 -2.1289
    endloop
  endfacet
  facet normal 0.890995 0 -0.454014
    outer loop
      vertex 4.38153 40 -2.40877
      vertex 4.52414 30 -2.1289
      vertex 4.38153 30 -2.40877
    endloop
  endfacet
  facet normal 0.860743 0 -0.50904
    outer loop
      vertex 4.38153 30 -2.40877
      vertex 4.22164 40 -2.67913
      vertex 4.38153 40 -2.40877
    endloop
  endfacet
  facet normal 0.860743 0 -0.50904
    outer loop
      vertex 4.22164 40 -2.67913
      vertex 4.38153 30 -2.40877
      vertex 4.22164 30 -2.67913
    endloop
  endfacet
  facet normal 0.82708 0 -0.562084
    outer loop
      vertex 4.22164 30 -2.67913
      vertex 4.04508 40 -2.93893
      vertex 4.22164 40 -2.67913
    endloop
  endfacet
  facet normal 0.82708 0 -0.562084
    outer loop
      vertex 4.04508 40 -2.93893
      vertex 4.22164 30 -2.67913
      vertex 4.04508 30 -2.93893
    endloop
  endfacet
  facet normal 0.790164 0 -0.612895
    outer loop
      vertex 4.04508 30 -2.93893
      vertex 3.85257 40 -3.18712
      vertex 4.04508 40 -2.93893
    endloop
  endfacet
  facet normal 0.790164 0 -0.612895
    outer loop
      vertex 3.85257 40 -3.18712
      vertex 4.04508 30 -2.93893
      vertex 3.85257 30 -3.18712
    endloop
  endfacet
  facet normal 0.750106 0 -0.661317
    outer loop
      vertex 3.85257 30 -3.18712
      vertex 3.64484 40 -3.42274
      vertex 3.85257 40 -3.18712
    endloop
  endfacet
  facet normal 0.750106 0 -0.661317
    outer loop
      vertex 3.64484 40 -3.42274
      vertex 3.85257 30 -3.18712
      vertex 3.64484 30 -3.42274
    endloop
  endfacet
  facet normal 0.707107 0 -0.707107
    outer loop
      vertex 3.64484 30 -3.42274
      vertex 3.42274 40 -3.64484
      vertex 3.64484 40 -3.42274
    endloop
  endfacet
  facet normal 0.707107 0 -0.707107
    outer loop
      vertex 3.42274 40 -3.64484
      vertex 3.64484 30 -3.42274
      vertex 3.42274 30 -3.64484
    endloop
  endfacet
  facet normal 0.661317 0 -0.750106
    outer loop
      vertex 3.18712 30 -3.85257
      vertex 3.42274 40 -3.64484
      vertex 3.42274 30 -3.64484
    endloop
  endfacet
  facet normal 0.661317 0 -0.750106
    outer loop
      vertex 3.42274 40 -3.64484
      vertex 3.18712 30 -3.85257
      vertex 3.18712 40 -3.85257
    endloop
  endfacet
  facet normal 0.612895 0 -0.790164
    outer loop
      vertex 2.93893 30 -4.04508
      vertex 3.18712 40 -3.85257
      vertex 3.18712 30 -3.85257
    endloop
  endfacet
  facet normal 0.612895 0 -0.790164
    outer loop
      vertex 3.18712 40 -3.85257
      vertex 2.93893 30 -4.04508
      vertex 2.93893 40 -4.04508
    endloop
  endfacet
  facet normal 0.562084 0 -0.82708
    outer loop
      vertex 2.67913 30 -4.22164
      vertex 2.93893 40 -4.04508
      vertex 2.93893 30 -4.04508
    endloop
  endfacet
  facet normal 0.562084 0 -0.82708
    outer loop
      vertex 2.93893 40 -4.04508
      vertex 2.67913 30 -4.22164
      vertex 2.67913 40 -4.22164
    endloop
  endfacet
  facet normal 0.50904 0 -0.860743
    outer loop
      vertex 2.40877 30 -4.38153
      vertex 2.67913 40 -4.22164
      vertex 2.67913 30 -4.22164
    endloop
  endfacet
  facet normal 0.50904 0 -0.860743
    outer loop
      vertex 2.67913 40 -4.22164
      vertex 2.40877 30 -4.38153
      vertex 2.40877 40 -4.38153
    endloop
  endfacet
  facet normal 0.454014 0 -0.890995
    outer loop
      vertex 2.1289 30 -4.52414
      vertex 2.40877 40 -4.38153
      vertex 2.40877 30 -4.38153
    endloop
  endfacet
  facet normal 0.454014 0 -0.890995
    outer loop
      vertex 2.40877 40 -4.38153
      vertex 2.1289 30 -4.52414
      vertex 2.1289 40 -4.52414
    endloop
  endfacet
  facet normal 0.397121 0 -0.917766
    outer loop
      vertex 1.84062 30 -4.64888
      vertex 2.1289 40 -4.52414
      vertex 2.1289 30 -4.52414
    endloop
  endfacet
  facet normal 0.397121 0 -0.917766
    outer loop
      vertex 2.1289 40 -4.52414
      vertex 1.84062 30 -4.64888
      vertex 1.84062 40 -4.64888
    endloop
  endfacet
  facet normal 0.338735 0 -0.940882
    outer loop
      vertex 1.54508 30 -4.75528
      vertex 1.84062 40 -4.64888
      vertex 1.84062 30 -4.64888
    endloop
  endfacet
  facet normal 0.338735 0 -0.940882
    outer loop
      vertex 1.84062 40 -4.64888
      vertex 1.54508 30 -4.75528
      vertex 1.54508 40 -4.75528
    endloop
  endfacet
  facet normal 0.279016 0 -0.960287
    outer loop
      vertex 1.24345 30 -4.84292
      vertex 1.54508 40 -4.75528
      vertex 1.54508 30 -4.75528
    endloop
  endfacet
  facet normal 0.279016 0 -0.960287
    outer loop
      vertex 1.54508 40 -4.75528
      vertex 1.24345 30 -4.84292
      vertex 1.24345 40 -4.84292
    endloop
  endfacet
  facet normal 0.218142 0 -0.975917
    outer loop
      vertex 0.936907 30 -4.91144
      vertex 1.24345 40 -4.84292
      vertex 1.24345 30 -4.84292
    endloop
  endfacet
  facet normal 0.218142 0 -0.975917
    outer loop
      vertex 1.24345 40 -4.84292
      vertex 0.936907 30 -4.91144
      vertex 0.936907 40 -4.91144
    endloop
  endfacet
  facet normal 0.156412 0 -0.987692
    outer loop
      vertex 0.626666 30 -4.96057
      vertex 0.936907 40 -4.91144
      vertex 0.936907 30 -4.91144
    endloop
  endfacet
  facet normal 0.156412 0 -0.987692
    outer loop
      vertex 0.936907 40 -4.91144
      vertex 0.626666 30 -4.96057
      vertex 0.626666 40 -4.96057
    endloop
  endfacet
  facet normal 0.0941081 0 -0.995562
    outer loop
      vertex 0.313953 30 -4.99013
      vertex 0.626666 40 -4.96057
      vertex 0.626666 30 -4.96057
    endloop
  endfacet
  facet normal 0.0941081 0 -0.995562
    outer loop
      vertex 0.626666 40 -4.96057
      vertex 0.313953 30 -4.99013
      vertex 0.313953 40 -4.99013
    endloop
  endfacet
  facet normal 0.0314223 0 -0.999506
    outer loop
      vertex 0 30 -5
      vertex 0.313953 40 -4.99013
      vertex 0.313953 30 -4.99013
    endloop
  endfacet
  facet normal 0.0314223 0 -0.999506
    outer loop
      vertex 0.313953 40 -4.99013
      vertex 0 30 -5
      vertex 0 40 -5
    endloop
  endfacet
  facet normal -0.0314223 0 -0.999506
    outer loop
      vertex -0.313953 30 -4.99013
      vertex 0 40 -5
      vertex 0 30 -5
    endloop
  endfacet
  facet normal -0.0314223 0 -0.999506
    outer loop
      vertex 0 40 -5
      vertex -0.313953 30 -4.99013
      vertex -0.313953 40 -4.99013
    endloop
  endfacet
  facet normal -0.0941081 0 -0.995562
    outer loop
      vertex -0.626666 30 -4.96057
      vertex -0.313953 40 -4.99013
      vertex -0.313953 30 -4.99013
    endloop
  endfacet
  facet normal -0.0941081 0 -0.995562
    outer loop
      vertex -0.313953 40 -4.99013
      vertex -0.626666 30 -4.96057
      vertex -0.626666 40 -4.96057
    endloop
  endfacet
  facet normal -0.156412 0 -0.987692
    outer loop
      vertex -0.936907 30 -4.91144
      vertex -0.626666 40 -4.96057
      vertex -0.626666 30 -4.96057
    endloop
  endfacet
  facet normal -0.156412 0 -0.987692
    outer loop
      vertex -0.626666 40 -4.96057
      vertex -0.936907 30 -4.91144
      vertex -0.936907 40 -4.91144
    endloop
  endfacet
  facet normal -0.218142 0 -0.975917
    outer loop
      vertex -1.24345 30 -4.84292
      vertex -0.936907 40 -4.91144
      vertex -0.936907 30 -4.91144
    endloop
  endfacet
  facet normal -0.218142 0 -0.975917
    outer loop
      vertex -0.936907 40 -4.91144
      vertex -1.24345 30 -4.84292
      vertex -1.24345 40 -4.84292
    endloop
  endfacet
  facet normal -0.279016 0 -0.960287
    outer loop
      vertex -1.54508 30 -4.75528
      vertex -1.24345 40 -4.84292
      vertex -1.24345 30 -4.84292
    endloop
  endfacet
  facet normal -0.279016 0 -0.960287
    outer loop
      vertex -1.24345 40 -4.84292
      vertex -1.54508 30 -4.75528
      vertex -1.54508 40 -4.75528
    endloop
  endfacet
  facet normal -0.338735 0 -0.940882
    outer loop
      vertex -1.84062 30 -4.64888
      vertex -1.54508 40 -4.75528
      vertex -1.54508 30 -4.75528
    endloop
  endfacet
  facet normal -0.338735 0 -0.940882
    outer loop
      vertex -1.54508 40 -4.75528
      vertex -1.84062 30 -4.64888
      vertex -1.84062 40 -4.64888
    endloop
  endfacet
  facet normal -0.397121 0 -0.917766
    outer loop
      vertex -2.1289 30 -4.52414
      vertex -1.84062 40 -4.64888
      vertex -1.84062 30 -4.64888
    endloop
  endfacet
  facet normal -0.397121 0 -0.917766
    outer loop
      vertex -1.84062 40 -4.64888
      vertex -2.1289 30 -4.52414
      vertex -2.1289 40 -4.52414
    endloop
  endfacet
  facet normal -0.454014 0 -0.890995
    outer loop
      vertex -2.40877 30 -4.38153
      vertex -2.1289 40 -4.52414
      vertex -2.1289 30 -4.52414
    endloop
  endfacet
  facet normal -0.454014 0 -0.890995
    outer loop
      vertex -2.1289 40 -4.52414
      vertex -2.40877 30 -4.38153
      vertex -2.40877 40 -4.38153
    endloop
  endfacet
  facet normal -0.50904 0 -0.860743
    outer loop
      vertex -2.67913 30 -4.22164
      vertex -2.40877 40 -4.38153
      vertex -2.40877 30 -4.38153
    endloop
  endfacet
  facet normal -0.50904 0 -0.860743
    outer loop
      vertex -2.40877 40 -4.38153
      vertex -2.67913 30 -4.22164
      vertex -2.67913 40 -4.22164
    endloop
  endfacet
  facet normal -0.562084 0 -0.82708
    outer loop
      vertex -2.93893 30 -4.04508
      vertex -2.67913 40 -4.22164
      vertex -2.67913 30 -4.22164
    endloop
  endfacet
  facet normal -0.562084 0 -0.82708
    outer loop
      vertex -2.67913 40 -4.22164
      vertex -2.93893 30 -4.04508
      vertex -2.93893 40 -4.04508
    endloop
  endfacet
  facet normal -0.612895 0 -0.790164
    outer loop
      vertex -3.18712 30 -3.85257
      vertex -2.93893 40 -4.04508
      vertex -2.93893 30 -4.04508
    endloop
  endfacet
  facet normal -0.612895 0 -0.790164
    outer loop
      vertex -2.93893 40 -4.04508
      vertex -3.18712 30 -3.85257
      vertex -3.18712 40 -3.85257
    endloop
  endfacet
  facet normal -0.661317 0 -0.750106
    outer loop
      vertex -3.42274 30 -3.64484
      vertex -3.18712 40 -3.85257
      vertex -3.18712 30 -3.85257
    endloop
  endfacet
  facet normal -0.661317 0 -0.750106
    outer loop
      vertex -3.18712 40 -3.85257
      vertex -3.42274 30 -3.64484
      vertex -3.42274 40 -3.64484
    endloop
  endfacet
  facet normal -0.707107 0 -0.707107
    outer loop
      vertex -3.42274 30 -3.64484
      vertex -3.64484 40 -3.42274
      vertex -3.42274 40 -3.64484
    endloop
  endfacet
  facet normal -0.707107 -0 -0.707107
    outer loop
      vertex -3.64484 40 -3.42274
      vertex -3.42274 30 -3.64484
      vertex -3.64484 30 -3.42274
    endloop
  endfacet
  facet normal -0.750106 0 -0.661317
    outer loop
      vertex -3.64484 30 -3.42274
      vertex -3.85257 40 -3.18712
      vertex -3.64484 40 -3.42274
    endloop
  endfacet
  facet normal -0.750106 -0 -0.661317
    outer loop
      vertex -3.85257 40 -3.18712
      vertex -3.64484 30 -3.42274
      vertex -3.85257 30 -3.18712
    endloop
  endfacet
  facet normal -0.790164 0 -0.612895
    outer loop
      vertex -3.85257 30 -3.18712
      vertex -4.04508 40 -2.93893
      vertex -3.85257 40 -3.18712
    endloop
  endfacet
  facet normal -0.790164 -0 -0.612895
    outer loop
      vertex -4.04508 40 -2.93893
      vertex -3.85257 30 -3.18712
      vertex -4.04508 30 -2.93893
    endloop
  endfacet
  facet normal -0.82708 0 -0.562084
    outer loop
      vertex -4.04508 30 -2.93893
      vertex -4.22164 40 -2.67913
      vertex -4.04508 40 -2.93893
    endloop
  endfacet
  facet normal -0.82708 -0 -0.562084
    outer loop
      vertex -4.22164 40 -2.67913
      vertex -4.04508 30 -2.93893
      vertex -4.22164 30 -2.67913
    endloop
  endfacet
  facet normal -0.860743 0 -0.50904
    outer loop
      vertex -4.22164 30 -2.67913
      vertex -4.38153 40 -2.40877
      vertex -4.22164 40 -2.67913
    endloop
  endfacet
  facet normal -0.860743 -0 -0.50904
    outer loop
      vertex -4.38153 40 -2.40877
      vertex -4.22164 30 -2.67913
      vertex -4.38153 30 -2.40877
    endloop
  endfacet
  facet normal -0.890995 0 -0.454014
    outer loop
      vertex -4.38153 30 -2.40877
      vertex -4.52414 40 -2.1289
      vertex -4.38153 40 -2.40877
    endloop
  endfacet
  facet normal -0.890995 -0 -0.454014
    outer loop
      vertex -4.52414 40 -2.1289
      vertex -4.38153 30 -2.40877
      vertex -4.52414 30 -2.1289
    endloop
  endfacet
  facet normal -0.917766 0 -0.397121
    outer loop
      vertex -4.52414 30 -2.1289
      vertex -4.64888 40 -1.84062
      vertex -4.52414 40 -2.1289
    endloop
  endfacet
  facet normal -0.917766 -0 -0.397121
    outer loop
      vertex -4.64888 40 -1.84062
      vertex -4.52414 30 -2.1289
      vertex -4.64888 30 -1.84062
    endloop
  endfacet
  facet normal -0.940882 0 -0.338735
    outer loop
      vertex -4.64888 30 -1.84062
      vertex -4.75528 40 -1.54508
      vertex -4.64888 40 -1.84062
    endloop
  endfacet
  facet normal -0.940882 -0 -0.338735
    outer loop
      vertex -4.75528 40 -1.54508
      vertex -4.64888 30 -1.84062
      vertex -4.75528 30 -1.54508
    endloop
  endfacet
  facet normal -0.960287 0 -0.279016
    outer loop
      vertex -4.75528 30 -1.54508
      vertex -4.84292 40 -1.24345
      vertex -4.75528 40 -1.54508
    endloop
  endfacet
  facet normal -0.960287 -0 -0.279016
    outer loop
      vertex -4.84292 40 -1.24345
      vertex -4.75528 30 -1.54508
      vertex -4.84292 30 -1.24345
    endloop
  endfacet
  facet normal -0.975917 0 -0.218142
    outer loop
      vertex -4.84292 30 -1.24345
      vertex -4.91144 40 -0.936907
      vertex -4.84292 40 -1.24345
    endloop
  endfacet
  facet normal -0.975917 -0 -0.218142
    outer loop
      vertex -4.91144 40 -0.936907
      vertex -4.84292 30 -1.24345
      vertex -4.91144 30 -0.936907
    endloop
  endfacet
  facet normal -0.987692 0 -0.156412
    outer loop
      vertex -4.91144 30 -0.936907
      vertex -4.96057 40 -0.626666
      vertex -4.91144 40 -0.936907
    endloop
  endfacet
  facet normal -0.987692 -0 -0.156412
    outer loop
      vertex -4.96057 40 -0.626666
      vertex -4.91144 30 -0.936907
      vertex -4.96057 30 -0.626666
    endloop
  endfacet
  facet normal -0.995562 0 -0.0941081
    outer loop
      vertex -4.96057 30 -0.626666
      vertex -4.99013 40 -0.313953
      vertex -4.96057 40 -0.626666
    endloop
  endfacet
  facet normal -0.995562 -0 -0.0941081
    outer loop
      vertex -4.99013 40 -0.313953
      vertex -4.96057 30 -0.626666
      vertex -4.99013 30 -0.313953
    endloop
  endfacet
  facet normal -0.999506 0 -0.0314223
    outer loop
      vertex -4.99013 30 -0.313953
      vertex -5 40 0
      vertex -4.99013 40 -0.313953
    endloop
  endfacet
  facet normal -0.999506 -0 -0.0314223
    outer loop
      vertex -5 40 0
      vertex -4.99013 30 -0.313953
      vertex -5 30 0
    endloop
  endfacet
  facet normal -0.999506 0 0.0314223
    outer loop
      vertex -5 30 0
      vertex -4.99013 40 0.313953
      vertex -5 40 0
    endloop
  endfacet
  facet normal -0.999506 0 0.0314223
    outer loop
      vertex -4.99013 40 0.313953
      vertex -5 30 0
      vertex -4.99013 30 0.313953
    endloop
  endfacet
  facet normal -0.995562 0 0.0941081
    outer loop
      vertex -4.99013 30 0.313953
      vertex -4.96057 40 0.626666
      vertex -4.99013 40 0.313953
    endloop
  endfacet
  facet normal -0.995562 0 0.0941081
    outer loop
      vertex -4.96057 40 0.626666
      vertex -4.99013 30 0.313953
      vertex -4.96057 30 0.626666
    endloop
  endfacet
  facet normal -0.987692 0 0.156412
    outer loop
      vertex -4.96057 30 0.626666
      vertex -4.91144 40 0.936907
      vertex -4.96057 40 0.626666
    endloop
  endfacet
  facet normal -0.987692 0 0.156412
    outer loop
      vertex -4.91144 40 0.936907
      vertex -4.96057 30 0.626666
      vertex -4.91144 30 0.936907
    endloop
  endfacet
  facet normal -0.975917 0 0.218142
    outer loop
      vertex -4.91144 30 0.936907
      vertex -4.84292 40 1.24345
      vertex -4.91144 40 0.936907
    endloop
  endfacet
  facet normal -0.975917 0 0.218142
    outer loop
      vertex -4.84292 40 1.24345
      vertex -4.91144 30 0.936907
      vertex -4.84292 30 1.24345
    endloop
  endfacet
  facet normal -0.960287 0 0.279016
    outer loop
      vertex -4.84292 30 1.24345
      vertex -4.75528 40 1.54508
      vertex -4.84292 40 1.24345
    endloop
  endfacet
  facet normal -0.960287 0 0.279016
    outer loop
      vertex -4.75528 40 1.54508
      vertex -4.84292 30 1.24345
      vertex -4.75528 30 1.54508
    endloop
  endfacet
  facet normal -0.940882 0 0.338735
    outer loop
      vertex -4.75528 30 1.54508
      vertex -4.64888 40 1.84062
      vertex -4.75528 40 1.54508
    endloop
  endfacet
  facet normal -0.940882 0 0.338735
    outer loop
      vertex -4.64888 40 1.84062
      vertex -4.75528 30 1.54508
      vertex -4.64888 30 1.84062
    endloop
  endfacet
  facet normal -0.917766 0 0.397121
    outer loop
      vertex -4.64888 30 1.84062
      vertex -4.52414 40 2.1289
      vertex -4.64888 40 1.84062
    endloop
  endfacet
  facet normal -0.917766 0 0.397121
    outer loop
      vertex -4.52414 40 2.1289
      vertex -4.64888 30 1.84062
      vertex -4.52414 30 2.1289
    endloop
  endfacet
  facet normal -0.890995 0 0.454014
    outer loop
      vertex -4.52414 30 2.1289
      vertex -4.38153 40 2.40877
      vertex -4.52414 40 2.1289
    endloop
  endfacet
  facet normal -0.890995 0 0.454014
    outer loop
      vertex -4.38153 40 2.40877
      vertex -4.52414 30 2.1289
      vertex -4.38153 30 2.40877
    endloop
  endfacet
  facet normal -0.860743 0 0.50904
    outer loop
      vertex -4.38153 30 2.40877
      vertex -4.22164 40 2.67913
      vertex -4.38153 40 2.40877
    endloop
  endfacet
  facet normal -0.860743 0 0.50904
    outer loop
      vertex -4.22164 40 2.67913
      vertex -4.38153 30 2.40877
      vertex -4.22164 30 2.67913
    endloop
  endfacet
  facet normal -0.82708 0 0.562084
    outer loop
      vertex -4.22164 30 2.67913
      vertex -4.04508 40 2.93893
      vertex -4.22164 40 2.67913
    endloop
  endfacet
  facet normal -0.82708 0 0.562084
    outer loop
      vertex -4.04508 40 2.93893
      vertex -4.22164 30 2.67913
      vertex -4.04508 30 2.93893
    endloop
  endfacet
  facet normal -0.790164 0 0.612895
    outer loop
      vertex -4.04508 30 2.93893
      vertex -3.85257 40 3.18712
      vertex -4.04508 40 2.93893
    endloop
  endfacet
  facet normal -0.790164 0 0.612895
    outer loop
      vertex -3.85257 40 3.18712
      vertex -4.04508 30 2.93893
      vertex -3.85257 30 3.18712
    endloop
  endfacet
  facet normal -0.750106 0 0.661317
    outer loop
      vertex -3.85257 30 3.18712
      vertex -3.64484 40 3.42274
      vertex -3.85257 40 3.18712
    endloop
  endfacet
  facet normal -0.750106 0 0.661317
    outer loop
      vertex -3.64484 40 3.42274
      vertex -3.85257 30 3.18712
      vertex -3.64484 30 3.42274
    endloop
  endfacet
  facet normal -0.707107 0 0.707107
    outer loop
      vertex -3.64484 30 3.42274
      vertex -3.42274 40 3.64484
      vertex -3.64484 40 3.42274
    endloop
  endfacet
  facet normal -0.707107 0 0.707107
    outer loop
      vertex -3.42274 40 3.64484
      vertex -3.64484 30 3.42274
      vertex -3.42274 30 3.64484
    endloop
  endfacet
  facet normal -0.661317 0 0.750106
    outer loop
      vertex -3.42274 40 3.64484
      vertex -3.18712 30 3.85257
      vertex -3.18712 40 3.85257
    endloop
  endfacet
  facet normal -0.661317 0 0.750106
    outer loop
      vertex -3.18712 30 3.85257
      vertex -3.42274 40 3.64484
      vertex -3.42274 30 3.64484
    endloop
  endfacet
  facet normal -0.612895 0 0.790164
    outer loop
      vertex -3.18712 40 3.85257
      vertex -2.93893 30 4.04508
      vertex -2.93893 40 4.04508
    endloop
  endfacet
  facet normal -0.612895 0 0.790164
    outer loop
      vertex -2.93893 30 4.04508
      vertex -3.18712 40 3.85257
      vertex -3.18712 30 3.85257
    endloop
  endfacet
  facet normal -0.562084 0 0.82708
    outer loop
      vertex -2.93893 40 4.04508
      vertex -2.67913 30 4.22164
      vertex -2.67913 40 4.22164
    endloop
  endfacet
  facet normal -0.562084 0 0.82708
    outer loop
      vertex -2.67913 30 4.22164
      vertex -2.93893 40 4.04508
      vertex -2.93893 30 4.04508
    endloop
  endfacet
  facet normal -0.50904 0 0.860743
    outer loop
      vertex -2.67913 40 4.22164
      vertex -2.40877 30 4.38153
      vertex -2.40877 40 4.38153
    endloop
  endfacet
  facet normal -0.50904 0 0.860743
    outer loop
      vertex -2.40877 30 4.38153
      vertex -2.67913 40 4.22164
      vertex -2.67913 30 4.22164
    endloop
  endfacet
  facet normal -0.454014 0 0.890995
    outer loop
      vertex -2.40877 40 4.38153
      vertex -2.1289 30 4.52414
      vertex -2.1289 40 4.52414
    endloop
  endfacet
  facet normal -0.454014 0 0.890995
    outer loop
      vertex -2.1289 30 4.52414
      vertex -2.40877 40 4.38153
      vertex -2.40877 30 4.38153
    endloop
  endfacet
  facet normal -0.397121 0 0.917766
    outer loop
      vertex -2.1289 40 4.52414
      vertex -1.84062 30 4.64888
      vertex -1.84062 40 4.64888
    endloop
  endfacet
  facet normal -0.397121 0 0.917766
    outer loop
      vertex -1.84062 30 4.64888
      vertex -2.1289 40 4.52414
      vertex -2.1289 30 4.52414
    endloop
  endfacet
  facet normal -0.338735 0 0.940882
    outer loop
      vertex -1.84062 40 4.64888
      vertex -1.54508 30 4.75528
      vertex -1.54508 40 4.75528
    endloop
  endfacet
  facet normal -0.338735 0 0.940882
    outer loop
      vertex -1.54508 30 4.75528
      vertex -1.84062 40 4.64888
      vertex -1.84062 30 4.64888
    endloop
  endfacet
  facet normal -0.279016 0 0.960287
    outer loop
      vertex -1.54508 40 4.75528
      vertex -1.24345 30 4.84292
      vertex -1.24345 40 4.84292
    endloop
  endfacet
  facet normal -0.279016 0 0.960287
    outer loop
      vertex -1.24345 30 4.84292
      vertex -1.54508 40 4.75528
      vertex -1.54508 30 4.75528
    endloop
  endfacet
  facet normal -0.218142 0 0.975917
    outer loop
      vertex -1.24345 40 4.84292
      vertex -0.936907 30 4.91144
      vertex -0.936907 40 4.91144
    endloop
  endfacet
  facet normal -0.218142 0 0.975917
    outer loop
      vertex -0.936907 30 4.91144
      vertex -1.24345 40 4.84292
      vertex -1.24345 30 4.84292
    endloop
  endfacet
  facet normal -0.156412 0 0.987692
    outer loop
      vertex -0.936907 40 4.91144
      vertex -0.626666 30 4.96057
      vertex -0.626666 40 4.96057
    endloop
  endfacet
  facet normal -0.156412 0 0.987692
    outer loop
      vertex -0.626666 30 4.96057
      vertex -0.936907 40 4.91144
      vertex -0.936907 30 4.91144
    endloop
  endfacet
  facet normal -0.0941081 0 0.995562
    outer loop
      vertex -0.626666 40 4.96057
      vertex -0.313953 30 4.99013
      vertex -0.313953 40 4.99013
    endloop
  endfacet
  facet normal -0.0941081 0 0.995562
    outer loop
      vertex -0.313953 30 4.99013
      vertex -0.626666 40 4.96057
      vertex -0.626666 30 4.96057
    endloop
  endfacet
  facet normal -0.0314223 0 0.999506
    outer loop
      vertex -0.313953 40 4.99013
      vertex 0 30 5
      vertex 0 40 5
    endloop
  endfacet
  facet normal -0.0314223 0 0.999506
    outer loop
      vertex 0 30 5
      vertex -0.313953 40 4.99013
      vertex -0.313953 30 4.99013
    endloop
  endfacet
  facet normal 0.0314223 0 0.999506
    outer loop
      vertex 0 40 5
      vertex 0.313953 30 4.99013
      vertex 0.313953 40 4.99013
    endloop
  endfacet
  facet normal 0.0314223 0 0.999506
    outer loop
      vertex 0.313953 30 4.99013
      vertex 0 40 5
      vertex 0 30 5
    endloop
  endfacet
  facet normal 0.0941081 0 0.995562
    outer loop
      vertex 0.313953 40 4.99013
      vertex 0.626666 30 4.96057
      vertex 0.626666 40 4.96057
    endloop
  endfacet
  facet normal 0.0941081 0 0.995562
    outer loop
      vertex 0.626666 30 4.96057
      vertex 0.313953 40 4.99013
      vertex 0.313953 30 4.99013
    endloop
  endfacet
  facet normal 0.156412 0 0.987692
    outer loop
      vertex 0.626666 40 4.96057
      vertex 0.936907 30 4.91144
      vertex 0.936907 40 4.91144
    endloop
  endfacet
  facet normal 0.156412 0 0.987692
    outer loop
      vertex 0.936907 30 4.91144
      vertex 0.626666 40 4.96057
      vertex 0.626666 30 4.96057
    endloop
  endfacet
  facet normal 0.218142 0 0.975917
    outer loop
      vertex 0.936907 40 4.91144
      vertex 1.24345 30 4.84292
      vertex 1.24345 40 4.84292
    endloop
  endfacet
  facet normal 0.218142 0 0.975917
    outer loop
      vertex 1.24345 30 4.84292
      vertex 0.936907 40 4.91144
      vertex 0.936907 30 4.91144
    endloop
  endfacet
  facet normal 0.279016 0 0.960287
    outer loop
      vertex 1.24345 40 4.84292
      vertex 1.54508 30 4.75528
      vertex 1.54508 40 4.75528
    endloop
  endfacet
  facet normal 0.279016 0 0.960287
    outer loop
      vertex 1.54508 30 4.75528
      vertex 1.24345 40 4.84292
      vertex 1.24345 30 4.84292
    endloop
  endfacet
  facet normal 0.338735 0 0.940882
    outer loop
      vertex 1.54508 40 4.75528
      vertex 1.84062 30 4.64888
      vertex 1.84062 40 4.64888
    endloop
  endfacet
  facet normal 0.338735 0 0.940882
    outer loop
      vertex 1.84062 30 4.64888
      vertex 1.54508 40 4.75528
      vertex 1.54508 30 4.75528
    endloop
  endfacet
  facet normal 0.397121 0 0.917766
    outer loop
      vertex 1.84062 40 4.64888
      vertex 2.1289 30 4.52414
      vertex 2.1289 40 4.52414
    endloop
  endfacet
  facet normal 0.397121 0 0.917766
    outer loop
      vertex 2.1289 30 4.52414
      vertex 1.84062 40 4.64888
      vertex 1.84062 30 4.64888
    endloop
  endfacet
  facet normal 0.454014 0 0.890995
    outer loop
      vertex 2.1289 40 4.52414
      vertex 2.40877 30 4.38153
      vertex 2.40877 40 4.38153
    endloop
  endfacet
  facet normal 0.454014 0 0.890995
    outer loop
      vertex 2.40877 30 4.38153
      vertex 2.1289 40 4.52414
      vertex 2.1289 30 4.52414
    endloop
  endfacet
  facet normal 0.50904 0 0.860743
    outer loop
      vertex 2.40877 40 4.38153
      vertex 2.67913 30 4.22164
      vertex 2.67913 40 4.22164
    endloop
  endfacet
  facet normal 0.50904 0 0.860743
    outer loop
      vertex 2.67913 30 4.22164
      vertex 2.40877 40 4.38153
      vertex 2.40877 30 4.38153
    endloop
  endfacet
  facet normal 0.562084 0 0.82708
    outer loop
      vertex 2.67913 40 4.22164
      vertex 2.93893 30 4.04508
      vertex 2.93893 40 4.04508
    endloop
  endfacet
  facet normal 0.562084 0 0.82708
    outer loop
      vertex 2.93893 30 4.04508
      vertex 2.67913 40 4.22164
      vertex 2.67913 30 4.22164
    endloop
  endfacet
  facet normal 0.612895 0 0.790164
    outer loop
      vertex 2.93893 40 4.04508
      vertex 3.18712 30 3.85257
      vertex 3.18712 40 3.85257
    endloop
  endfacet
  facet normal 0.612895 0 0.790164
    outer loop
      vertex 3.18712 30 3.85257
      vertex 2.93893 40 4.04508
      vertex 2.93893 30 4.04508
    endloop
  endfacet
  facet normal 0.661317 0 0.750106
    outer loop
      vertex 3.18712 40 3.85257
      vertex 3.42274 30 3.64484
      vertex 3.42274 40 3.64484
    endloop
  endfacet
  facet normal 0.661317 0 0.750106
    outer loop
      vertex 3.42274 30 3.64484
      vertex 3.18712 40 3.85257
      vertex 3.18712 30 3.85257
    endloop
  endfacet
  facet normal 0.707107 -0 0.707107
    outer loop
      vertex 3.42274 30 3.64484
      vertex 3.64484 40 3.42274
      vertex 3.42274 40 3.64484
    endloop
  endfacet
  facet normal 0.707107 0 0.707107
    outer loop
      vertex 3.64484 40 3.42274
      vertex 3.42274 30 3.64484
      vertex 3.64484 30 3.42274
    endloop
  endfacet
  facet normal 0.750106 -0 0.661317
    outer loop
      vertex 3.64484 30 3.42274
      vertex 3.85257 40 3.18712
      vertex 3.64484 40 3.42274
    endloop
  endfacet
  facet normal 0.750106 0 0.661317
    outer loop
      vertex 3.85257 40 3.18712
      vertex 3.64484 30 3.42274
      vertex 3.85257 30 3.18712
    endloop
  endfacet
  facet normal 0.790164 -0 0.612895
    outer loop
      vertex 3.85257 30 3.18712
      vertex 4.04508 40 2.93893
      vertex 3.85257 40 3.18712
    endloop
  endfacet
  facet normal 0.790164 0 0.612895
    outer loop
      vertex 4.04508 40 2.93893
      vertex 3.85257 30 3.18712
      vertex 4.04508 30 2.93893
    endloop
  endfacet
  facet normal 0.82708 -0 0.562084
    outer loop
      vertex 4.04508 30 2.93893
      vertex 4.22164 40 2.67913
      vertex 4.04508 40 2.93893
    endloop
  endfacet
  facet normal 0.82708 0 0.562084
    outer loop
      vertex 4.22164 40 2.67913
      vertex 4.04508 30 2.93893
      vertex 4.22164 30 2.67913
    endloop
  endfacet
  facet normal 0.860743 -0 0.50904
    outer loop
      vertex 4.22164 30 2.67913
      vertex 4.38153 40 2.40877
      vertex 4.22164 40 2.67913
    endloop
  endfacet
  facet normal 0.860743 0 0.50904
    outer loop
      vertex 4.38153 40 2.40877
      vertex 4.22164 30 2.67913
      vertex 4.38153 30 2.40877
    endloop
  endfacet
  facet normal 0.890995 -0 0.454014
    outer loop
      vertex 4.38153 30 2.40877
      vertex 4.52414 40 2.1289
      vertex 4.38153 40 2.40877
    endloop
  endfacet
  facet normal 0.890995 0 0.454014
    outer loop
      vertex 4.52414 40 2.1289
      vertex 4.38153 30 2.40877
      vertex 4.52414 30 2.1289
    endloop
  endfacet
  facet normal 0.917766 -0 0.397121
    outer loop
      vertex 4.52414 30 2.1289
      vertex 4.64888 40 1.84062
      vertex 4.52414 40 2.1289
    endloop
  endfacet
  facet normal 0.917766 0 0.397121
    outer loop
      vertex 4.64888 40 1.84062
      vertex 4.52414 30 2.1289
      vertex 4.64888 30 1.84062
    endloop
  endfacet
  facet normal 0.940882 -0 0.338735
    outer loop
      vertex 4.64888 30 1.84062
      vertex 4.75528 40 1.54508
      vertex 4.64888 40 1.84062
    endloop
  endfacet
  facet normal 0.940882 0 0.338735
    outer loop
      vertex 4.75528 40 1.54508
      vertex 4.64888 30 1.84062
      vertex 4.75528 30 1.54508
    endloop
  endfacet
  facet normal 0.960287 -0 0.279016
    outer loop
      vertex 4.75528 30 1.54508
      vertex 4.84292 40 1.24345
      vertex 4.75528 40 1.54508
    endloop
  endfacet
  facet normal 0.960287 0 0.279016
    outer loop
      vertex 4.84292 40 1.24345
      vertex 4.75528 30 1.54508
      vertex 4.84292 30 1.24345
    endloop
  endfacet
  facet normal 0.975917 -0 0.218142
    outer loop
      vertex 4.84292 30 1.24345
      vertex 4.91144 40 0.936907
      vertex 4.84292 40 1.24345
    endloop
  endfacet
  facet normal 0.975917 0 0.218142
    outer loop
      vertex 4.91144 40 0.936907
      vertex 4.84292 30 1.24345
      vertex 4.91144 30 0.936907
    endloop
  endfacet
  facet normal 0.987692 -0 0.156412
    outer loop
      vertex 4.91144 30 0.936907
      vertex 4.96057 40 0.626666
      vertex 4.91144 40 0.936907
    endloop
  endfacet
  facet normal 0.987692 0 0.156412
    outer loop
      vertex 4.96057 40 0.626666
      vertex 4.91144 30 0.936907
      vertex 4.96057 30 0.626666
    endloop
  endfacet
  facet normal 0.995562 -0 0.0941081
    outer loop
      vertex 4.96057 30 0.626666
      vertex 4.99013 40 0.313953
      vertex 4.96057 40 0.626666
    endloop
  endfacet
  facet normal 0.995562 0 0.0941081
    outer loop
      vertex 4.99013 40 0.313953
      vertex 4.96057 30 0.626666
      vertex 4.99013 30 0.313953
    endloop
  endfacet
  facet normal 0.999506 -0 0.0314223
    outer loop
      vertex 4.99013 30 0.313953
      vertex 5 40 0
      vertex 4.99013 40 0.313953
    endloop
  endfacet
  facet normal 0.999506 0 0.0314223
    outer loop
      vertex 5 40 0
      vertex 4.99013 30 0.313953
      vertex 5 30 0
    endloop
  endfacet
  facet normal 0 -1 0
    outer loop
      vertex -0.313953 30 4.99013
      vertex 0.313953 30 4.99013
      vertex 0 30 5
    endloop
  endfacet
  facet normal 0 -1 0
    outer loop
      vertex -0.626666 30 4.96057
      vertex 0.313953 30 4.99013
      vertex -0.313953 30 4.99013
    endloop
  endfacet
  facet normal 0 -1 0
    outer loop
      vertex -0.626666 30 4.96057
      vertex 0.626666 30 4.96057
      vertex 0.313953 30 4.99013
    endloop
  endfacet
  facet normal 0 -1 0
    outer loop
      vertex -0.936907 30 4.91144
      vertex 0.626666 30 4.96057
      vertex -0.626666 30 4.96057
    endloop
  endfacet
  facet normal 0 -1 0
    outer loop
      vertex -0.936907 30 4.91144
      vertex 0.936907 30 4.91144
      vertex 0.626666 30 4.96057
    endloop
  endfacet
  facet normal 0 -1 0
    outer loop
      vertex -1.24345 30 4.84292
      vertex 0.936907 30 4.91144
      vertex -0.936907 30 4.91144
    endloop
  endfacet
  facet normal 0 -1 0
    outer loop
      vertex -1.24345 30 4.84292
      vertex 1.24345 30 4.84292
      vertex 0.936907 30 4.91144
    endloop
  endfacet
  facet normal 0 -1 0
    outer loop
      vertex -1.54508 30 4.75528
      vertex 1.24345 30 4.84292
      vertex -1.24345 30 4.84292
    endloop
  endfacet
  facet normal 0 -1 0
    outer loop
      vertex -1.54508 30 4.75528
      vertex 1.54508 30 4.75528
      vertex 1.24345 30 4.84292
    endloop
  endfacet
  facet normal 0 -1 0
    outer loop
      vertex -1.84062 30 4.64888
      vertex 1.54508 30 4.75528
      vertex -1.54508 30 4.75528
    endloop
  endfacet
  facet normal 0 -1 0
    outer loop
      vertex -1.84062 30 4.64888
      vertex 1.84062 30 4.64888
      vertex 1.54508 30 4.75528
    endloop
  endfacet
  facet normal 0 -1 0
    outer loop
      vertex -2.1289 30 4.52414
      vertex 1.84062 30 4.64888
      vertex -1.84062 30 4.64888
    endloop
  endfacet
  facet normal 0 -1 0
    outer loop
      vertex -2.1289 30 4.52414
      vertex 2.1289 30 4.52414
      vertex 1.84062 30 4.64888
    endloop
  endfacet
  facet normal 0 -1 0
    outer loop
      vertex -2.40877 30 4.38153
      vertex 2.1289 30 4.52414
      vertex -2.1289 30 4.52414
    endloop
  endfacet
  facet normal 0 -1 0
    outer loop
      vertex -2.40877 30 4.38153
      vertex 2.40877 30 4.38153
      vertex 2.1289 30 4.52414
    endloop
  endfacet
  facet normal 0 -1 0
    outer loop
      vertex -2.67913 30 4.22164
      vertex 2.40877 30 4.38153
      vertex -2.40877 30 4.38153
    endloop
  endfacet
  facet normal 0 -1 0
    outer loop
      vertex -2.67913 30 4.22164
      vertex 2.67913 30 4.22164
      vertex 2.40877 30 4.38153
    endloop
  endfacet
  facet normal 0 -1 0
    outer loop
      vertex -2.93893 30 4.04508
      vertex 2.67913 30 4.22164
      vertex -2.67913 30 4.22164
    endloop
  endfacet
  facet normal 0 -1 0
    outer loop
      vertex -2.93893 30 4.04508
      vertex 2.93893 30 4.04508
      vertex 2.67913 30 4.22164
    endloop
  endfacet
  facet normal 0 -1 0
    outer loop
      vertex -3.18712 30 3.85257
      vertex 2.93893 30 4.04508
      vertex -2.93893 30 4.04508
    endloop
  endfacet
  facet normal 0 -1 0
    outer loop
      vertex -3.18712 30 3.85257
      vertex 3.18712 30 3.85257
      vertex 2.93893 30 4.04508
    endloop
  endfacet
  facet normal 0 -1 0
    outer loop
      vertex -3.42274 30 3.64484
      vertex 3.18712 30 3.85257
      vertex -3.18712 30 3.85257
    endloop
  endfacet
  facet normal 0 -1 0
    outer loop
      vertex -3.42274 30 3.64484
      vertex 3.42274 30 3.64484
      vertex 3.18712 30 3.85257
    endloop
  endfacet
  facet normal 0 -1 0
    outer loop
      vertex -3.64484 30 3.42274
      vertex 3.42274 30 3.64484
      vertex -3.42274 30 3.64484
    endloop
  endfacet
  facet normal 0 -1 0
    outer loop
      vertex -3.64484 30 3.42274
      vertex 3.64484 30 3.42274
      vertex 3.42274 30 3.64484
    endloop
  endfacet
  facet normal 0 -1 0
    outer loop
      vertex -3.85257 30 3.18712
      vertex 3.64484 30 3.42274
      vertex -3.64484 30 3.42274
    endloop
  endfacet
  facet normal 0 -1 0
    outer loop
      vertex -3.85257 30 3.18712
      vertex 3.85257 30 3.18712
      vertex 3.64484 30 3.42274
    endloop
  endfacet
  facet normal 0 -1 0
    outer loop
      vertex -4.04508 30 2.93893
      vertex 3.85257 30 3.18712
      vertex -3.85257 30 3.18712
    endloop
  endfacet
  facet normal 0 -1 0
    outer loop
      vertex -4.04508 30 2.93893
      vertex 4.04508 30 2.93893
      vertex 3.85257 30 3.18712
    endloop
  endfacet
  facet normal 0 -1 0
    outer loop
      vertex -4.22164 30 2.67913
      vertex 4.04508 30 2.93893
      vertex -4.04508 30 2.93893
    endloop
  endfacet
  facet normal 0 -1 0
    outer loop
      vertex -4.22164 30 2.67913
      vertex 4.22164 30 2.67913
      vertex 4.04508 30 2.93893
    endloop
  endfacet
  facet normal 0 -1 0
    outer loop
      vertex -4.38153 30 2.40877
      vertex 4.22164 30 2.67913
      vertex -4.22164 30 2.67913
    endloop
  endfacet
  facet normal 0 -1 0
    outer loop
      vertex -4.38153 30 2.40877
      vertex 4.38153 30 2.40877
      vertex 4.22164 30 2.67913
    endloop
  endfacet
  facet normal 0 -1 0
    outer loop
      vertex -4.52414 30 2.1289
      vertex 4.38153 30 2.40877
      vertex -4.38153 30 2.40877
    endloop
  endfacet
  facet normal 0 -1 0
    outer loop
      vertex -4.52414 30 2.1289
      vertex 4.52414 30 2.1289
      vertex 4.38153 30 2.40877
    endloop
  endfacet
  facet normal 0 -1 0
    outer loop
      vertex -4.64888 30 1.84062
      vertex 4.52414 30 2.1289
      vertex -4.52414 30 2.1289
    endloop
  endfacet
  facet normal 0 -1 0
    outer loop
      vertex -4.64888 30 1.84062
      vertex 4.64888 30 1.84062
      vertex 4.52414 30 2.1289
    endloop
  endfacet
  facet normal 0 -1 0
    outer loop
      vertex -4.75528 30 1.54508
      vertex 4.64888 30 1.84062
      vertex -4.64888 30 1.84062
    endloop
  endfacet
  facet normal 0 -1 0
    outer loop
      vertex -4.75528 30 1.54508
      vertex 4.75528 30 1.54508
      vertex 4.64888 30 1.84062
    endloop
  endfacet
  facet normal 0 -1 0
    outer loop
      vertex -4.84292 30 1.24345
      vertex 4.75528 30 1.54508
      vertex -4.75528 30 1.54508
    endloop
  endfacet
  facet normal 0 -1 0
    outer loop
      vertex -4.84292 30 1.24345
      vertex 4.84292 30 1.24345
      vertex 4.75528 30 1.54508
    endloop
  endfacet
  facet normal 0 -1 0
    outer loop
      vertex -4.91144 30 0.936907
      vertex 4.84292 30 1.24345
      vertex -4.84292 30 1.24345
    endloop
  endfacet
  facet normal 0 -1 0
    outer loop
      vertex -4.91144 30 0.936907
      vertex 4.91144 30 0.936907
      vertex 4.84292 30 1.24345
    endloop
  endfacet
  facet normal 0 -1 0
    outer loop
      vertex -4.96057 30 0.626666
      vertex 4.91144 30 0.936907
      vertex -4.91144 30 0.936907
    endloop
  endfacet
  facet normal 0 -1 0
    outer loop
      vertex -4.96057 30 0.626666
      vertex 4.96057 30 0.626666
      vertex 4.91144 30 0.936907
    endloop
  endfacet
  facet normal 0 -1 0
    outer loop
      vertex -4.99013 30 0.313953
      vertex 4.96057 30 0.626666
      vertex -4.96057 30 0.626666
    endloop
  endfacet
  facet normal 0 -1 0
    outer loop
      vertex -4.99013 30 0.313953
      vertex 4.99013 30 0.313953
      vertex 4.96057 30 0.626666
    endloop
  endfacet
  facet normal 0 -1 0
    outer loop
      vertex -5 30 0
      vertex 4.99013 30 0.313953
      vertex -4.99013 30 0.313953
    endloop
  endfacet
  facet normal 0 -1 0
    outer loop
      vertex -5 30 0
      vertex 5 30 0
      vertex 4.99013 30 0.313953
    endloop
  endfacet
  facet normal 0 -1 0
    outer loop
      vertex -4.99013 30 -0.313953
      vertex 5 30 0
      vertex -5 30 0
    endloop
  endfacet
  facet normal 0 -1 0
    outer loop
      vertex -4.99013 30 -0.313953
      vertex 4.99013 30 -0.313953
      vertex 5 30 0
    endloop
  endfacet
  facet normal 0 -1 0
    outer loop
      vertex -4.96057 30 -0.626666
      vertex 4.99013 30 -0.313953
      vertex -4.99013 30 -0.313953
    endloop
  endfacet
  facet normal 0 -1 0
    outer loop
      vertex -4.96057 30 -0.626666
      vertex 4.96057 30 -0.626666
      vertex 4.99013 30 -0.313953
    endloop
  endfacet
  facet normal 0 -1 0
    outer loop
      vertex -4.91144 30 -0.936907
      vertex 4.96057 30 -0.626666
      vertex -4.96057 30 -0.626666
    endloop
  endfacet
  facet normal 0 -1 0
    outer loop
      vertex -4.91144 30 -0.936907
      vertex 4.91144 30 -0.936907
      vertex 4.96057 30 -0.626666
    endloop
  endfacet
  facet normal 0 -1 0
    outer loop
      vertex -4.84292 30 -1.24345
      vertex 4.91144 30 -0.936907
      vertex -4.91144 30 -0.936907
    endloop
  endfacet
  facet normal 0 -1 0
    outer loop
      vertex -4.84292 30 -1.24345
      vertex 4.84292 30 -1.24345
      vertex 4.91144 30 -0.936907
    endloop
  endfacet
  facet normal 0 -1 0
    outer loop
      vertex -4.75528 30 -1.54508
      vertex 4.84292 30 -1.24345
      vertex -4.84292 30 -1.24345
    endloop
  endfacet
  facet normal 0 -1 0
    outer loop
      vertex -4.75528 30 -1.54508
      vertex 4.75528 30 -1.54508
      vertex 4.84292 30 -1.24345
    endloop
  endfacet
  facet normal 0 -1 0
    outer loop
      vertex -4.64888 30 -1.84062
      vertex 4.75528 30 -1.54508
      vertex -4.75528 30 -1.54508
    endloop
  endfacet
  facet normal 0 -1 0
    outer loop
      vertex -4.64888 30 -1.84062
      vertex 4.64888 30 -1.84062
      vertex 4.75528 30 -1.54508
    endloop
  endfacet
  facet normal 0 -1 0
    outer loop
      vertex -4.52414 30 -2.1289
      vertex 4.64888 30 -1.84062
      vertex -4.64888 30 -1.84062
    endloop
  endfacet
  facet normal 0 -1 0
    outer loop
      vertex -4.52414 30 -2.1289
      vertex 4.52414 30 -2.1289
      vertex 4.64888 30 -1.84062
    endloop
  endfacet
  facet normal 0 -1 0
    outer loop
      vertex -4.38153 30 -2.40877
      vertex 4.52414 30 -2.1289
      vertex -4.52414 30 -2.1289
    endloop
  endfacet
  facet normal 0 -1 0
    outer loop
      vertex -4.38153 30 -2.40877
      vertex 4.38153 30 -2.40877
      vertex 4.52414 30 -2.1289
    endloop
  endfacet
  facet normal 0 -1 0
    outer loop
      vertex -4.22164 30 -2.67913
      vertex 4.38153 30 -2.40877
      vertex -4.38153 30 -2.40877
    endloop
  endfacet
  facet normal 0 -1 0
    outer loop
      vertex -4.22164 30 -2.67913
      vertex 4.22164 30 -2.67913
      vertex 4.38153 30 -2.40877
    endloop
  endfacet
  facet normal 0 -1 0
    outer loop
      vertex -4.04508 30 -2.93893
      vertex 4.22164 30 -2.67913
      vertex -4.22164 30 -2.67913
    endloop
  endfacet
  facet normal 0 -1 0
    outer loop
      vertex -4.04508 30 -2.93893
      vertex 4.04508 30 -2.93893
      vertex 4.22164 30 -2.67913
    endloop
  endfacet
  facet normal 0 -1 0
    outer loop
      vertex -3.85257 30 -3.18712
      vertex 4.04508 30 -2.93893
      vertex -4.04508 30 -2.93893
    endloop
  endfacet
  facet normal 0 -1 0
    outer loop
      vertex -3.85257 30 -3.18712
      vertex 3.85257 30 -3.18712
      vertex 4.04508 30 -2.93893
    endloop
  endfacet
  facet normal 0 -1 0
    outer loop
      vertex -3.64484 30 -3.42274
      vertex 3.85257 30 -3.18712
      vertex -3.85257 30 -3.18712
    endloop
  endfacet
  facet normal 0 -1 0
    outer loop
      vertex -3.64484 30 -3.42274
      vertex 3.64484 30 -3.42274
      vertex 3.85257 30 -3.18712
    endloop
  endfacet
  facet normal 0 -1 0
    outer loop
      vertex -3.42274 30 -3.64484
      vertex 3.64484 30 -3.42274
      vertex -3.64484 30 -3.42274
    endloop
  endfacet
  facet normal 0 -1 0
    outer loop
      vertex -3.42274 30 -3.64484
      vertex 3.42274 30 -3.64484
      vertex 3.64484 30 -3.42274
    endloop
  endfacet
  facet normal 0 -1 0
    outer loop
      vertex -3.18712 30 -3.85257
      vertex 3.42274 30 -3.64484
      vertex -3.42274 30 -3.64484
    endloop
  endfacet
  facet normal 0 -1 0
    outer loop
      vertex -3.18712 30 -3.85257
      vertex 3.18712 30 -3.85257
      vertex 3.42274 30 -3.64484
    endloop
  endfacet
  facet normal 0 -1 0
    outer loop
      vertex -2.93893 30 -4.04508
      vertex 3.18712 30 -3.85257
      vertex -3.18712 30 -3.85257
    endloop
  endfacet
  facet normal 0 -1 0
    outer loop
      vertex -2.93893 30 -4.04508
      vertex 2.93893 30 -4.04508
      vertex 3.18712 30 -3.85257
    endloop
  endfacet
  facet normal 0 -1 0
    outer loop
      vertex -2.67913 30 -4.22164
      vertex 2.93893 30 -4.04508
      vertex -2.93893 30 -4.04508
    endloop
  endfacet
  facet normal 0 -1 0
    outer loop
      vertex -2.67913 30 -4.22164
      vertex 2.67913 30 -4.22164
      vertex 2.93893 30 -4.04508
    endloop
  endfacet
  facet normal 0 -1 0
    outer loop
      vertex -2.40877 30 -4.38153
      vertex 2.67913 30 -4.22164
      vertex -2.67913 30 -4.22164
    endloop
  endfacet
  facet normal 0 -1 0
    outer loop
      vertex -2.40877 30 -4.38153
      vertex 2.40877 30 -4.38153
      vertex 2.67913 30 -4.22164
    endloop
  endfacet
  facet normal 0 -1 0
    outer loop
      vertex -2.1289 30 -4.52414
      vertex 2.40877 30 -4.38153
      vertex -2.40877 30 -4.38153
    endloop
  endfacet
  facet normal 0 -1 0
    outer loop
      vertex -2.1289 30 -4.52414
      vertex 2.1289 30 -4.52414
      vertex 2.40877 30 -4.38153
    endloop
  endfacet
  facet normal 0 -1 0
    outer loop
      vertex -1.84062 30 -4.64888
      vertex 2.1289 30 -4.52414
      vertex -2.1289 30 -4.52414
    endloop
  endfacet
  facet normal 0 -1 0
    outer loop
      vertex -1.84062 30 -4.64888
      vertex 1.84062 30 -4.64888
      vertex 2.1289 30 -4.52414
    endloop
  endfacet
  facet normal 0 -1 0
    outer loop
      vertex -1.54508 30 -4.75528
      vertex 1.84062 30 -4.64888
      vertex -1.84062 30 -4.64888
    endloop
  endfacet
  facet normal 0 -1 0
    outer loop
      vertex -1.54508 30 -4.75528
      vertex 1.54508 30 -4.75528
      vertex 1.84062 30 -4.64888
    endloop
  endfacet
  facet normal 0 -1 0
    outer loop
      vertex -1.24345 30 -4.84292
      vertex 1.54508 30 -4.75528
      vertex -1.54508 30 -4.75528
    endloop
  endfacet
  facet normal 0 -1 0
    outer loop
      vertex -1.24345 30 -4.84292
      vertex 1.24345 30 -4.84292
      vertex 1.54508 30 -4.75528
    endloop
  endfacet
  facet normal 0 -1 0
    outer loop
      vertex -0.936907 30 -4.91144
      vertex 1.24345 30 -4.84292
      vertex -1.24345 30 -4.84292
    endloop
  endfacet
  facet normal 0 -1 0
    outer loop
      vertex -0.936907 30 -4.91144
      vertex 0.936907 30 -4.91144
      vertex 1.24345 30 -4.84292
    endloop
  endfacet
  facet normal 0 -1 0
    outer loop
      vertex -0.626666 30 -4.96057
      vertex 0.936907 30 -4.91144
      vertex -0.936907 30 -4.91144
    endloop
  endfacet
  facet normal 0 -1 0
    outer loop
      vertex -0.626666 30 -4.96057
      vertex 0.626666 30 -4.96057
      vertex 0.936907 30 -4.91144
    endloop
  endfacet
  facet normal 0 -1 0
    outer loop
      vertex -0.313953 30 -4.99013
      vertex 0.626666 30 -4.96057
      vertex -0.626666 30 -4.96057
    endloop
  endfacet
  facet normal 0 -1 0
    outer loop
      vertex -0.313953 30 -4.99013
      vertex 0.313953 30 -4.99013
      vertex 0.626666 30 -4.96057
    endloop
  endfacet
  facet normal -0 -1 0
    outer loop
      vertex 0.313953 30 -4.99013
      vertex -0.313953 30 -4.99013
      vertex 0 30 -5
    endloop
  endfacet
  facet normal 0 1 0
    outer loop
      vertex 0.313953 40 4.99013
      vertex -0.313953 40 4.99013
      vertex 0 40 5
    endloop
  endfacet
  facet normal 0 1 0
    outer loop
      vertex 0.626666 40 4.96057
      vertex -0.313953 40 4.99013
      vertex 0.313953 40 4.99013
    endloop
  endfacet
  facet normal 0 1 0
    outer loop
      vertex 0.626666 40 4.96057
      vertex -0.626666 40 4.96057
      vertex -0.313953 40 4.99013
    endloop
  endfacet
  facet normal 0 1 0
    outer loop
      vertex 0.936907 40 4.91144
      vertex -0.626666 40 4.96057
      vertex 0.626666 40 4.96057
    endloop
  endfacet
  facet normal 0 1 0
    outer loop
      vertex 0.936907 40 4.91144
      vertex -0.936907 40 4.91144
      vertex -0.626666 40 4.96057
    endloop
  endfacet
  facet normal 0 1 0
    outer loop
      vertex 1.24345 40 4.84292
      vertex -0.936907 40 4.91144
      vertex 0.936907 40 4.91144
    endloop
  endfacet
  facet normal 0 1 0
    outer loop
      vertex 1.24345 40 4.84292
      vertex -1.24345 40 4.84292
      vertex -0.936907 40 4.91144
    endloop
  endfacet
  facet normal 0 1 0
    outer loop
      vertex 1.54508 40 4.75528
      vertex -1.24345 40 4.84292
      vertex 1.24345 40 4.84292
    endloop
  endfacet
  facet normal 0 1 0
    outer loop
      vertex 1.54508 40 4.75528
      vertex -1.54508 40 4.75528
      vertex -1.24345 40 4.84292
    endloop
  endfacet
  facet normal 0 1 0
    outer loop
      vertex 1.84062 40 4.64888
      vertex -1.54508 40 4.75528
      vertex 1.54508 40 4.75528
    endloop
  endfacet
  facet normal 0 1 0
    outer loop
      vertex 1.84062 40 4.64888
      vertex -1.84062 40 4.64888
      vertex -1.54508 40 4.75528
    endloop
  endfacet
  facet normal 0 1 0
    outer loop
      vertex 2.1289 40 4.52414
      vertex -1.84062 40 4.64888
      vertex 1.84062 40 4.64888
    endloop
  endfacet
  facet normal 0 1 0
    outer loop
      vertex 2.1289 40 4.52414
      vertex -2.1289 40 4.52414
      vertex -1.84062 40 4.64888
    endloop
  endfacet
  facet normal 0 1 0
    outer loop
      vertex 2.40877 40 4.38153
      vertex -2.1289 40 4.52414
      vertex 2.1289 40 4.52414
    endloop
  endfacet
  facet normal 0 1 0
    outer loop
      vertex 2.40877 40 4.38153
      vertex -2.40877 40 4.38153
      vertex -2.1289 40 4.52414
    endloop
  endfacet
  facet normal 0 1 0
    outer loop
      vertex 2.67913 40 4.22164
      vertex -2.40877 40 4.38153
      vertex 2.40877 40 4.38153
    endloop
  endfacet
  facet normal 0 1 0
    outer loop
      vertex 2.67913 40 4.22164
      vertex -2.67913 40 4.22164
      vertex -2.40877 40 4.38153
    endloop
  endfacet
  facet normal 0 1 0
    outer loop
      vertex 2.93893 40 4.04508
      vertex -2.67913 40 4.22164
      vertex 2.67913 40 4.22164
    endloop
  endfacet
  facet normal 0 1 0
    outer loop
      vertex 2.93893 40 4.04508
      vertex -2.93893 40 4.04508
      vertex -2.67913 40 4.22164
    endloop
  endfacet
  facet normal 0 1 0
    outer loop
      vertex 3.18712 40 3.85257
      vertex -2.93893 40 4.04508
      vertex 2.93893 40 4.04508
    endloop
  endfacet
  facet normal 0 1 0
    outer loop
      vertex 3.18712 40 3.85257
      vertex -3.18712 40 3.85257
      vertex -2.93893 40 4.04508
    endloop
  endfacet
  facet normal 0 1 0
    outer loop
      vertex 3.42274 40 3.64484
      vertex -3.18712 40 3.85257
      vertex 3.18712 40 3.85257
    endloop
  endfacet
  facet normal 0 1 0
    outer loop
      vertex 3.42274 40 3.64484
      vertex -3.42274 40 3.64484
      vertex -3.18712 40 3.85257
    endloop
  endfacet
  facet normal 0 1 0
    outer loop
      vertex 3.64484 40 3.42274
      vertex -3.42274 40 3.64484
      vertex 3.42274 40 3.64484
    endloop
  endfacet
  facet normal 0 1 0
    outer loop
      vertex 3.64484 40 3.42274
      vertex -3.64484 40 3.42274
      vertex -3.42274 40 3.64484
    endloop
  endfacet
  facet normal 0 1 0
    outer loop
      vertex 3.85257 40 3.18712
      vertex -3.64484 40 3.42274
      vertex 3.64484 40 3.42274
    endloop
  endfacet
  facet normal 0 1 0
    outer loop
      vertex 3.85257 40 3.18712
      vertex -3.85257 40 3.18712
      vertex -3.64484 40 3.42274
    endloop
  endfacet
  facet normal 0 1 0
    outer loop
      vertex 4.04508 40 2.93893
      vertex -3.85257 40 3.18712
      vertex 3.85257 40 3.18712
    endloop
  endfacet
  facet normal 0 1 0
    outer loop
      vertex 4.04508 40 2.93893
      vertex -4.04508 40 2.93893
      vertex -3.85257 40 3.18712
    endloop
  endfacet
  facet normal 0 1 0
    outer loop
      vertex 4.22164 40 2.67913
      vertex -4.04508 40 2.93893
      vertex 4.04508 40 2.93893
    endloop
  endfacet
  facet normal 0 1 0
    outer loop
      vertex 4.22164 40 2.67913
      vertex -4.22164 40 2.67913
      vertex -4.04508 40 2.93893
    endloop
  endfacet
  facet normal 0 1 0
    outer loop
      vertex 4.38153 40 2.40877
      vertex -4.22164 40 2.67913
      vertex 4.22164 40 2.67913
    endloop
  endfacet
  facet normal 0 1 0
    outer loop
      vertex 4.38153 40 2.40877
      vertex -4.38153 40 2.40877
      vertex -4.22164 40 2.67913
    endloop
  endfacet
  facet normal 0 1 0
    outer loop
      vertex 4.52414 40 2.1289
      vertex -4.38153 40 2.40877
      vertex 4.38153 40 2.40877
    endloop
  endfacet
  facet normal 0 1 0
    outer loop
      vertex 4.52414 40 2.1289
      vertex -4.52414 40 2.1289
      vertex -4.38153 40 2.40877
    endloop
  endfacet
  facet normal 0 1 0
    outer loop
      vertex 4.64888 40 1.84062
      vertex -4.52414 40 2.1289
      vertex 4.52414 40 2.1289
    endloop
  endfacet
  facet normal 0 1 0
    outer loop
      vertex 4.64888 40 1.84062
      vertex -4.64888 40 1.84062
      vertex -4.52414 40 2.1289
    endloop
  endfacet
  facet normal 0 1 0
    outer loop
      vertex 4.75528 40 1.54508
      vertex -4.64888 40 1.84062
      vertex 4.64888 40 1.84062
    endloop
  endfacet
  facet normal 0 1 0
    outer loop
      vertex 4.75528 40 1.54508
      vertex -4.75528 40 1.54508
      vertex -4.64888 40 1.84062
    endloop
  endfacet
  facet normal 0 1 0
    outer loop
      vertex 4.84292 40 1.24345
      vertex -4.75528 40 1.54508
      vertex 4.75528 40 1.54508
    endloop
  endfacet
  facet normal 0 1 0
    outer loop
      vertex 4.84292 40 1.24345
      vertex -4.84292 40 1.24345
      vertex -4.75528 40 1.54508
    endloop
  endfacet
  facet normal 0 1 0
    outer loop
      vertex 4.91144 40 0.936907
      vertex -4.84292 40 1.24345
      vertex 4.84292 40 1.24345
    endloop
  endfacet
  facet normal 0 1 0
    outer loop
      vertex 4.91144 40 0.936907
      vertex -4.91144 40 0.936907
      vertex -4.84292 40 1.24345
    endloop
  endfacet
  facet normal 0 1 0
    outer loop
      vertex 4.96057 40 0.626666
      vertex -4.91144 40 0.936907
      vertex 4.91144 40 0.936907
    endloop
  endfacet
  facet normal 0 1 0
    outer loop
      vertex 4.96057 40 0.626666
      vertex -4.96057 40 0.626666
      vertex -4.91144 40 0.936907
    endloop
  endfacet
  facet normal 0 1 0
    outer loop
      vertex 4.99013 40 0.313953
      vertex -4.96057 40 0.626666
      vertex 4.96057 40 0.626666
    endloop
  endfacet
  facet normal 0 1 0
    outer loop
      vertex 4.99013 40 0.313953
      vertex -4.99013 40 0.313953
      vertex -4.96057 40 0.626666
    endloop
  endfacet
  facet normal 0 1 0
    outer loop
      vertex 5 40 0
      vertex -4.99013 40 0.313953
      vertex 4.99013 40 0.313953
    endloop
  endfacet
  facet normal 0 1 0
    outer loop
      vertex 5 40 0
      vertex -5 40 0
      vertex -4.99013 40 0.313953
    endloop
  endfacet
  facet normal 0 1 -0
    outer loop
      vertex 4.99013 40 -0.313953
      vertex -5 40 0
      vertex 5 40 0
    endloop
  endfacet
  facet normal 0 1 0
    outer loop
      vertex 4.99013 40 -0.313953
      vertex -4.99013 40 -0.313953
      vertex -5 40 0
    endloop
  endfacet
  facet normal 0 1 -0
    outer loop
      vertex 4.96057 40 -0.626666
      vertex -4.99013 40 -0.313953
      vertex 4.99013 40 -0.313953
    endloop
  endfacet
  facet normal 0 1 0
    outer loop
      vertex 4.96057 40 -0.626666
      vertex -4.96057 40 -0.626666
      vertex -4.99013 40 -0.313953
    endloop
  endfacet
  facet normal 0 1 -0
    outer loop
      vertex 4.91144 40 -0.936907
      vertex -4.96057 40 -0.626666
      vertex 4.96057 40 -0.626666
    endloop
  endfacet
  facet normal 0 1 0
    outer loop
      vertex 4.91144 40 -0.936907
      vertex -4.91144 40 -0.936907
      vertex -4.96057 40 -0.626666
    endloop
  endfacet
  facet normal 0 1 -0
    outer loop
      vertex 4.84292 40 -1.24345
      vertex -4.91144 40 -0.936907
      vertex 4.91144 40 -0.936907
    endloop
  endfacet
  facet normal 0 1 0
    outer loop
      vertex 4.84292 40 -1.24345
      vertex -4.84292 40 -1.24345
      vertex -4.91144 40 -0.936907
    endloop
  endfacet
  facet normal 0 1 -0
    outer loop
      vertex 4.75528 40 -1.54508
      vertex -4.84292 40 -1.24345
      vertex 4.84292 40 -1.24345
    endloop
  endfacet
  facet normal 0 1 0
    outer loop
      vertex 4.75528 40 -1.54508
      vertex -4.75528 40 -1.54508
      vertex -4.84292 40 -1.24345
    endloop
  endfacet
  facet normal 0 1 -0
    outer loop
      vertex 4.64888 40 -1.84062
      vertex -4.75528 40 -1.54508
      vertex 4.75528 40 -1.54508
    endloop
  endfacet
  facet normal 0 1 0
    outer loop
      vertex 4.64888 40 -1.84062
      vertex -4.64888 40 -1.84062
      vertex -4.75528 40 -1.54508
    endloop
  endfacet
  facet normal 0 1 -0
    outer loop
      vertex 4.52414 40 -2.1289
      vertex -4.64888 40 -1.84062
      vertex 4.64888 40 -1.84062
    endloop
  endfacet
  facet normal 0 1 0
    outer loop
      vertex 4.52414 40 -2.1289
      vertex -4.52414 40 -2.1289
      vertex -4.64888 40 -1.84062
    endloop
  endfacet
  facet normal 0 1 -0
    outer loop
      vertex 4.38153 40 -2.40877
      vertex -4.52414 40 -2.1289
      vertex 4.52414 40 -2.1289
    endloop
  endfacet
  facet normal 0 1 0
    outer loop
      vertex 4.38153 40 -2.40877
      vertex -4.38153 40 -2.40877
      vertex -4.52414 40 -2.1289
    endloop
  endfacet
  facet normal 0 1 -0
    outer loop
      vertex 4.22164 40 -2.67913
      vertex -4.38153 40 -2.40877
      vertex 4.38153 40 -2.40877
    endloop
  endfacet
  facet normal 0 1 0
    outer loop
      vertex 4.22164 40 -2.67913
      vertex -4.22164 40 -2.67913
      vertex -4.38153 40 -2.40877
    endloop
  endfacet
  facet normal 0 1 -0
    outer loop
      vertex 4.04508 40 -2.93893
      vertex -4.22164 40 -2.67913
      vertex 4.22164 40 -2.67913
    endloop
  endfacet
  facet normal 0 1 0
    outer loop
      vertex 4.04508 40 -2.93893
      vertex -4.04508 40 -2.93893
      vertex -4.22164 40 -2.67913
    endloop
  endfacet
  facet normal 0 1 -0
    outer loop
      vertex 3.85257 40 -3.18712
      vertex -4.04508 40 -2.93893
      vertex 4.04508 40 -2.93893
    endloop
  endfacet
  facet normal 0 1 0
    outer loop
      vertex 3.85257 40 -3.18712
      vertex -3.85257 40 -3.18712
      vertex -4.04508 40 -2.93893
    endloop
  endfacet
  facet normal 0 1 -0
    outer loop
      vertex 3.64484 40 -3.42274
      vertex -3.85257 40 -3.18712
      vertex 3.85257 40 -3.18712
    endloop
  endfacet
  facet normal 0 1 0
    outer loop
      vertex 3.64484 40 -3.42274
      vertex -3.64484 40 -3.42274
      vertex -3.85257 40 -3.18712
    endloop
  endfacet
  facet normal 0 1 -0
    outer loop
      vertex 3.42274 40 -3.64484
      vertex -3.64484 40 -3.42274
      vertex 3.64484 40 -3.42274
    endloop
  endfacet
  facet normal 0 1 0
    outer loop
      vertex 3.42274 40 -3.64484
      vertex -3.42274 40 -3.64484
      vertex -3.64484 40 -3.42274
    endloop
  endfacet
  facet normal 0 1 -0
    outer loop
      vertex 3.18712 40 -3.85257
      vertex -3.42274 40 -3.64484
      vertex 3.42274 40 -3.64484
    endloop
  endfacet
  facet normal 0 1 0
    outer loop
      vertex 3.18712 40 -3.85257
      vertex -3.18712 40 -3.85257
      vertex -3.42274 40 -3.64484
    endloop
  endfacet
  facet normal 0 1 -0
    outer loop
      vertex 2.93893 40 -4.04508
      vertex -3.18712 40 -3.85257
      vertex 3.18712 40 -3.85257
    endloop
  endfacet
  facet normal 0 1 0
    outer loop
      vertex 2.93893 40 -4.04508
      vertex -2.93893 40 -4.04508
      vertex -3.18712 40 -3.85257
    endloop
  endfacet
  facet normal 0 1 -0
    outer loop
      vertex 2.67913 40 -4.22164
      vertex -2.93893 40 -4.04508
      vertex 2.93893 40 -4.04508
    endloop
  endfacet
  facet normal 0 1 0
    outer loop
      vertex 2.67913 40 -4.22164
      vertex -2.67913 40 -4.22164
      vertex -2.93893 40 -4.04508
    endloop
  endfacet
  facet normal 0 1 -0
    outer loop
      vertex 2.40877 40 -4.38153
      vertex -2.67913 40 -4.22164
      vertex 2.67913 40 -4.22164
    endloop
  endfacet
  facet normal 0 1 0
    outer loop
      vertex 2.40877 40 -4.38153
      vertex -2.40877 40 -4.38153
      vertex -2.67913 40 -4.22164
    endloop
  endfacet
  facet normal 0 1 -0
    outer loop
      vertex 2.1289 40 -4.52414
      vertex -2.40877 40 -4.38153
      vertex 2.40877 40 -4.38153
    endloop
  endfacet
  facet normal 0 1 0
    outer loop
      vertex 2.1289 40 -4.52414
      vertex -2.1289 40 -4.52414
      vertex -2.40877 40 -4.38153
    endloop
  endfacet
  facet normal 0 1 -0
    outer loop
      vertex 1.84062 40 -4.64888
      vertex -2.1289 40 -4.52414
      vertex 2.1289 40 -4.52414
    endloop
  endfacet
  facet normal 0 1 0
    outer loop
      vertex 1.84062 40 -4.64888
      vertex -1.84062 40 -4.64888
      vertex -2.1289 40 -4.52414
    endloop
  endfacet
  facet normal 0 1 -0
    outer loop
      vertex 1.54508 40 -4.75528
      vertex -1.84062 40 -4.64888
      vertex 1.84062 40 -4.64888
    endloop
  endfacet
  facet normal 0 1 0
    outer loop
      vertex 1.54508 40 -4.75528
      vertex -1.54508 40 -4.75528
      vertex -1.84062 40 -4.64888
    endloop
  endfacet
  facet normal 0 1 -0
    outer loop
      vertex 1.24345 40 -4.84292
      vertex -1.54508 40 -4.75528
      vertex 1.54508 40 -4.75528
    endloop
  endfacet
  facet normal 0 1 0
    outer loop
      vertex 1.24345 40 -4.84292
      vertex -1.24345 40 -4.84292
      vertex -1.54508 40 -4.75528
    endloop
  endfacet
  facet normal 0 1 -0
    outer loop
      vertex 0.936907 40 -4.91144
      vertex -1.24345 40 -4.84292
      vertex 1.24345 40 -4.84292
    endloop
  endfacet
  facet normal 0 1 0
    outer loop
      vertex 0.936907 40 -4.91144
      vertex -0.936907 40 -4.91144
      vertex -1.24345 40 -4.84292
    endloop
  endfacet
  facet normal 0 1 -0
    outer loop
      vertex 0.626666 40 -4.96057
      vertex -0.936907 40 -4.91144
      vertex 0.936907 40 -4.91144
    endloop
  endfacet
  facet normal 0 1 0
    outer loop
      vertex 0.626666 40 -4.96057
      vertex -0.626666 40 -4.96057
      vertex -0.936907 40 -4.91144
    endloop
  endfacet
  facet normal 0 1 -0
    outer loop
      vertex 0.313953 40 -4.99013
      vertex -0.626666 40 -4.96057
      vertex 0.626666 40 -4.96057
    endloop
  endfacet
  facet normal 0 1 0
    outer loop
      vertex 0.313953 40 -4.99013
      vertex -0.313953 40 -4.99013
      vertex -0.626666 40 -4.96057
    endloop
  endfacet
  facet normal -0 1 0
    outer loop
      vertex -0.313953 40 -4.99013
      vertex 0.313953 40 -4.99013
      vertex 0 40 -5
    endloop
  endfacet
endsolid OpenSCAD_Model
