solid OpenSCAD_Model
  facet normal -0 0 1
    outer loop
      vertex 0 10 12
      vertex 8 0 12
      vertex 8 10 12
    endloop
  endfacet
  facet normal 0 0 1
    outer loop
      vertex 8 0 12
      vertex 0 10 12
      vertex 0 0 12
    endloop
  endfacet
  facet normal 0 0 -1
    outer loop
      vertex 0 0 0
      vertex 8 10 0
      vertex 8 0 0
    endloop
  endfacet
  facet normal -0 0 -1
    outer loop
      vertex 8 10 0
      vertex 0 0 0
      vertex 0 10 0
    endloop
  endfacet
  facet normal 0 -1 0
    outer loop
      vertex 0 0 0
      vertex 8 0 12
      vertex 0 0 12
    endloop
  endfacet
  facet normal 0 -1 -0
    outer loop
      vertex 8 0 12
      vertex 0 0 0
      vertex 8 0 0
    endloop
  endfacet
  facet normal 1 -0 0
    outer loop
      vertex 8 0 12
      vertex 8 10 0
      vertex 8 10 12
    endloop
  endfacet
  facet normal 1 0 0
    outer loop
      vertex 8 10 0
      vertex 8 0 12
      vertex 8 0 0
    endloop
  endfacet
  facet normal 0 1 -0
    outer loop
      vertex 8 10 0
      vertex 0 10 12
      vertex 8 10 12
    endloop
  endfacet
  facet normal 0 1 0
    outer loop
      vertex 0 10 12
      vertex 8 10 0
      vertex 0 10 0
    endloop
  endfacet
  facet normal -1 0 0
    outer loop
      vertex 0 0 0
      vertex 0 10 12
      vertex 0 10 0
    endloop
  endfacet
  facet normal -1 -0 0
    outer loop
      vertex 0 10 12
      vertex 0 0 0
      vertex 0 0 12
    endloop
  endfacet
endsolid OpenSCAD_Model
